<?xml version="1.0" standalone="no"?>
<!DOCTYPE svg PUBLIC "-//W3C//DTD SVG 20010904//EN"
 "http://www.w3.org/TR/2001/REC-SVG-20010904/DTD/svg10.dtd">
<svg version="1.0" xmlns="http://www.w3.org/2000/svg"
 width="700.000000pt" height="700.000000pt" viewBox="0 0 700.000000 700.000000"
 preserveAspectRatio="xMidYMid meet">
<metadata>
Created by potrace 1.14, written by Peter Selinger 2001-2017
</metadata>
<g transform="translate(0.000000,700.000000) scale(0.100000,-0.100000)"
fill="#000000" stroke="none">
<path d="M935 3941 l-278 -278 -1 -432 c-1 -282 2 -435 9 -440 5 -4 104 -7
220 -7 l210 1 1 170 c1 94 2 175 3 180 1 11 209 14 226 3 7 -4 11 -69 10 -177
0 -94 2 -172 5 -172 3 -1 101 -2 218 -3 206 -1 212 -1 213 19 1 11 2 207 3
435 l1 415 -31 35 c-33 36 -499 503 -519 520 -8 7 -97 -76 -290 -269z"/>
<path d="M2225 4156 c-80 -25 -129 -65 -165 -137 -53 -103 -39 -258 31 -343
61 -73 140 -106 244 -100 109 6 194 65 238 164 27 59 31 177 9 243 -20 62 -89
140 -144 162 -53 22 -160 27 -213 11z m170 -122 c49 -32 70 -82 70 -164 0 -61
-4 -82 -23 -113 -42 -66 -124 -90 -194 -55 -125 62 -116 299 13 345 41 15 100
9 134 -13z"/>
<path d="M2712 4160 c-17 -5 -18 -21 -18 -285 -1 -154 3 -283 8 -286 19 -12
236 -1 293 15 79 23 156 100 179 176 25 83 21 171 -10 235 -50 108 -131 145
-317 148 -64 1 -124 0 -135 -3z m278 -131 c53 -33 64 -56 75 -154 1 -5 -4 -30
-11 -54 -23 -80 -80 -121 -175 -126 l-59 -3 0 179 0 179 68 0 c51 0 75 -5 102
-21z"/>
<path d="M3302 4159 c-15 -6 -17 -32 -14 -291 l3 -284 57 0 c31 0 59 4 62 8 3
4 5 59 5 123 l-2 115 124 0 123 0 0 -123 0 -122 48 1 c26 1 54 2 63 3 15 1 17
29 17 286 l0 285 -29 1 c-16 1 -38 1 -49 1 -52 0 -50 5 -50 -112 l0 -110 -123
0 -123 0 1 106 c1 58 -3 108 -8 111 -13 8 -85 9 -105 2z"/>
<path d="M4094 4162 c-20 -3 -44 -38 -44 -63 0 -6 -6 -25 -14 -42 -7 -18 -37
-95 -64 -172 -28 -77 -64 -176 -80 -220 l-30 -80 64 0 63 -1 23 66 23 65 105
1 c58 0 110 -1 116 -3 6 -2 19 -31 29 -64 10 -32 21 -59 24 -60 3 -1 32 -2 64
-3 41 -2 57 2 57 11 0 7 -18 61 -41 120 -22 60 -42 113 -43 118 -2 6 -7 21
-13 35 -5 14 -32 85 -59 158 -45 120 -51 132 -74 133 -14 0 -38 1 -55 3 -16 1
-40 0 -51 -2z m90 -226 c20 -54 36 -101 36 -105 0 -11 -140 -6 -141 4 0 11 64
205 68 202 1 -1 18 -47 37 -101z"/>
<path d="M4511 4160 c-6 -4 -8 -523 -2 -566 1 -8 42 -10 130 -9 116 3 136 6
188 29 97 45 146 106 167 209 32 155 -45 294 -182 327 -48 11 -288 19 -301 10z
m281 -126 c48 -23 71 -60 76 -120 6 -73 -4 -118 -35 -154 -36 -43 -73 -60
-143 -64 l-60 -4 0 179 0 179 65 0 c38 0 78 -6 97 -16z"/>
<path d="M5047 4163 c-18 -3 -27 -9 -24 -17 3 -8 45 -83 94 -168 l88 -155 0
-117 c0 -72 3 -116 10 -117 35 -4 92 -5 103 -1 9 3 12 37 12 121 l0 116 95
164 c52 90 94 165 93 167 -4 3 -87 7 -113 5 -16 -1 -34 -27 -74 -106 -30 -58
-57 -107 -60 -109 -4 -3 -31 45 -61 105 -49 98 -57 109 -81 109 -15 0 -33 2
-41 3 -7 2 -26 2 -41 0z"/>
<path d="M5628 3639 c-34 -13 -44 -41 -27 -80 11 -27 9 -32 -15 -58 -17 -18
-24 -34 -20 -44 8 -21 10 -21 64 7 84 42 113 124 59 169 -24 19 -24 19 -61 6z"/>
<path d="M2149 3380 l-24 -6 0 -238 c-1 -262 0 -259 -64 -254 -32 3 -34 1 -48
-46 -19 -64 -12 -69 88 -69 53 0 103 28 127 72 21 37 22 51 22 289 l0 250 -39
4 c-21 2 -49 1 -62 -2z"/>
<path d="M2423 3382 c-39 -3 -43 -6 -44 -30 0 -15 -1 -109 0 -209 0 -164 2
-186 22 -232 38 -90 119 -142 220 -142 136 -1 233 73 254 192 5 27 9 301 6
397 -1 20 -6 22 -65 22 l-65 0 -3 -207 c-3 -199 -4 -209 -26 -240 -22 -32 -34
-38 -93 -47 -34 -5 -79 24 -101 66 -15 28 -18 61 -18 229 0 223 7 208 -87 201z"/>
<path d="M3040 3380 l-35 -5 0 -292 c0 -160 3 -295 7 -298 7 -7 35 -9 96 -6
21 1 22 4 22 116 0 106 1 115 19 115 24 0 31 -9 99 -131 l57 -104 67 1 c37 0
70 3 74 6 6 7 -109 197 -140 229 -20 23 -21 21 19 37 49 20 79 74 83 151 3 60
1 69 -26 107 -23 31 -43 46 -79 58 -49 16 -199 25 -263 16z m190 -109 c43 -4
65 -52 48 -102 -11 -33 -41 -49 -98 -52 l-45 -2 -3 69 c-2 38 -1 74 2 81 3 10
32 12 96 6z"/>
<path d="M3538 3380 l-23 -6 0 -293 c-1 -174 3 -295 9 -298 19 -12 239 -4 290
11 50 15 126 62 154 95 33 40 63 122 66 181 8 150 -61 258 -190 296 -50 14
-262 24 -306 14z m299 -146 c44 -33 59 -67 62 -135 5 -130 -73 -207 -209 -205
l-44 1 1 165 c1 91 2 176 2 189 1 24 2 24 78 17 60 -5 83 -11 110 -32z"/>
<path d="M4328 3376 c-192 -56 -269 -314 -146 -493 94 -138 327 -155 449 -33
65 65 88 130 85 240 -4 134 -51 216 -150 265 -65 32 -169 41 -238 21z m168
-122 c68 -33 106 -147 81 -245 -37 -149 -229 -172 -293 -36 -82 176 54 356
212 281z"/>
<path d="M5534 3382 l-31 -3 -107 -295 c-60 -162 -105 -298 -102 -301 7 -8
116 -7 123 1 3 3 15 34 27 68 l21 63 118 0 117 1 20 -56 c12 -30 23 -61 25
-67 4 -13 16 -15 70 -15 78 0 76 -1 60 35 -21 46 -205 546 -205 557 0 9 -86
17 -136 12z m122 -334 c5 -16 -3 -18 -74 -18 l-80 0 34 98 c19 53 37 104 40
112 5 12 46 -89 80 -192z"/>
<path d="M4853 3083 c55 -164 101 -300 103 -302 2 -2 37 -4 79 -4 42 0 77 2
79 4 2 2 49 138 105 302 l100 297 -68 0 -68 0 -42 -137 c-87 -277 -95 -303
-100 -303 -4 0 -34 93 -69 208 -35 114 -65 213 -67 220 -3 8 -28 12 -78 12
l-73 0 99 -297z"/>
</g>
</svg>
