<?xml version="1.0" encoding="iso-8859-1"?>
<!-- Generator: Adobe Illustrator 19.0.0, SVG Export Plug-In . SVG Version: 6.00 Build 0)  -->
<svg version="1.1" id="Layer_1" xmlns="http://www.w3.org/2000/svg" xmlns:xlink="http://www.w3.org/1999/xlink" x="0px" y="0px"
	 viewBox="0 0 512 512" style="enable-background:new 0 0 512 512;" xml:space="preserve">
<g transform="translate(1 1)">
	<g>
		<g>
			<path d="M511,43.138V25.483C511,10.476,499.524-1,484.517-1H24.6C10.476-1-1,10.476-1,25.483v17.655
				c0,12.06,7.414,21.834,17.655,25.209v179.248C6.203,251.104-1,260.768-1,272.655v17.655c0,11.887,7.203,21.552,17.655,25.059
				v186.803c0,5.297,3.531,8.828,8.828,8.828h185.379h88.276h185.379c5.297,0,8.828-3.531,8.828-8.828V315.37
				C503.797,311.862,511,302.197,511,290.31v-17.655c0-11.887-7.203-21.552-17.655-25.059V68.347
				C503.586,64.972,511,55.198,511,43.138z M16.655,25.483c0-5.297,3.531-8.828,7.945-8.828h460.8c4.414,0,7.945,3.531,7.945,8.828
				v17.655c0,5.297-3.531,8.828-8.828,8.828H25.483H24.6c-4.414,0-7.945-3.531-7.945-8.828V25.483z M475.69,246.172H34.31V69.621
				H475.69V246.172z M219.69,493.345V369.759h70.621v123.586H219.69z M475.69,493.345H307.966V360.931
				c0-5.297-3.531-8.828-8.828-8.828h-88.276c-5.297,0-8.828,3.531-8.828,8.828v132.414H34.31V316.793H475.69V493.345z
				 M493.345,290.31c0,4.414-3.531,8.828-8.828,8.828H25.483c-5.297,0-8.828-3.531-8.828-8.828v-17.655
				c0-4.414,3.531-8.828,8.828-8.828h459.034c4.414,0,8.828,3.531,8.828,8.828V290.31z"/>
			<path d="M202.034,210.862h8.828h88.276h8.828c5.297,0,8.828-3.531,8.828-8.828s-3.531-8.828-8.828-8.828v-79.448
				c0-5.297-3.531-8.828-8.828-8.828h-88.276c-5.297,0-8.828,3.531-8.828,8.828v79.448c-5.297,0-8.828,3.531-8.828,8.828
				S196.738,210.862,202.034,210.862z M263.828,193.207v-26.483h26.483v26.483H263.828z M290.31,149.069h-26.483v-26.483h26.483
				V149.069z M246.172,122.586v26.483H219.69v-26.483H246.172z M219.69,166.724h26.483v26.483H219.69V166.724z"/>
			<path d="M60.793,210.862h8.828h88.276h8.828c5.297,0,8.828-3.531,8.828-8.828s-3.531-8.828-8.828-8.828v-79.448
				c0-5.297-3.531-8.828-8.828-8.828H69.621c-5.297,0-8.828,3.531-8.828,8.828v79.448c-5.297,0-8.828,3.531-8.828,8.828
				S55.497,210.862,60.793,210.862z M122.586,193.207v-26.483h26.483v26.483H122.586z M149.069,149.069h-26.483v-26.483h26.483
				V149.069z M104.931,122.586v26.483H78.448v-26.483H104.931z M78.448,166.724h26.483v26.483H78.448V166.724z"/>
			<path d="M343.276,210.862h8.828h88.276h8.828c5.297,0,8.828-3.531,8.828-8.828s-3.531-8.828-8.828-8.828v-79.448
				c0-5.297-3.531-8.828-8.828-8.828h-88.276c-5.297,0-8.828,3.531-8.828,8.828v79.448c-5.297,0-8.828,3.531-8.828,8.828
				S337.979,210.862,343.276,210.862z M405.069,193.207v-26.483h26.483v26.483H405.069z M431.552,149.069h-26.483v-26.483h26.483
				V149.069z M387.414,122.586v26.483h-26.483v-26.483H387.414z M360.931,166.724h26.483v26.483h-26.483V166.724z"/>
			<path d="M60.793,458.034h8.828h88.276h8.828c5.297,0,8.828-3.531,8.828-8.828c0-5.297-3.531-8.828-8.828-8.828v-79.448
				c0-5.297-3.531-8.828-8.828-8.828H69.621c-5.297,0-8.828,3.531-8.828,8.828v79.448c-5.297,0-8.828,3.531-8.828,8.828
				C51.966,454.503,55.497,458.034,60.793,458.034z M122.586,440.379v-26.483h26.483v26.483H122.586z M149.069,396.241h-26.483
				v-26.483h26.483V396.241z M104.931,369.759v26.483H78.448v-26.483H104.931z M78.448,413.897h26.483v26.483H78.448V413.897z"/>
			<path d="M343.276,458.034h8.828h88.276h8.828c5.297,0,8.828-3.531,8.828-8.828c0-5.297-3.531-8.828-8.828-8.828v-79.448
				c0-5.297-3.531-8.828-8.828-8.828h-88.276c-5.297,0-8.828,3.531-8.828,8.828v79.448c-5.297,0-8.828,3.531-8.828,8.828
				C334.448,454.503,337.979,458.034,343.276,458.034z M405.069,440.379v-26.483h26.483v26.483H405.069z M431.552,396.241h-26.483
				v-26.483h26.483V396.241z M387.414,369.759v26.483h-26.483v-26.483H387.414z M360.931,413.897h26.483v26.483h-26.483V413.897z"/>
			<path d="M272.655,422.724h-8.828c-5.297,0-8.828,3.531-8.828,8.828c0,5.297,3.531,8.828,8.828,8.828h8.828
				c5.297,0,8.828-3.531,8.828-8.828C281.483,426.255,277.952,422.724,272.655,422.724z"/>
		</g>
	</g>
</g>
<g>
</g>
<g>
</g>
<g>
</g>
<g>
</g>
<g>
</g>
<g>
</g>
<g>
</g>
<g>
</g>
<g>
</g>
<g>
</g>
<g>
</g>
<g>
</g>
<g>
</g>
<g>
</g>
<g>
</g>
</svg>
